<?xml version="1.0" encoding="utf-8" ?>
<svg baseProfile="full" height="420.4545454545454" version="1.1" width="385.2272727272727" xmlns="http://www.w3.org/2000/svg" xmlns:ev="http://www.w3.org/2001/xml-events" xmlns:xlink="http://www.w3.org/1999/xlink"><defs /><rect fill="white" height="420.4545454545454" width="385.2272727272727" x="0" y="0" /><path d="M159.09090909090907,238.63636363636365 m-2.272727272727273,-79.54545454545455 l-4.545454545454546,5.681818181818182 -7.954545454545454,10.227272727272727 l-6.818181818181818,15.909090909090908 -3.409090909090909,18.181818181818183 l1.1363636363636365,15.909090909090908 5.681818181818182,17.045454545454547 l10.227272727272727,12.5 12.5,9.090909090909092 l13.636363636363637,5.681818181818182 14.772727272727273,1.1363636363636365 l12.5,-3.409090909090909 12.5,-7.954545454545454 l11.363636363636363,-11.363636363636363 9.090909090909092,-13.636363636363637 l5.681818181818182,-12.5 2.272727272727273,-12.5 l1.1363636363636365,-14.772727272727273 -3.409090909090909,-12.5 l-6.818181818181818,-9.090909090909092 -9.090909090909092,-7.954545454545454 l-10.227272727272727,-6.818181818181818 -10.227272727272727,-4.545454545454546 l-10.227272727272727,-2.272727272727273 -10.227272727272727,0.0 l-10.227272727272727,0.0 -12.5,2.272727272727273 l-6.818181818181818,2.272727272727273 -3.409090909090909,3.409090909090909 l-2.272727272727273,3.409090909090909 m-23.863636363636363,30.681818181818183 l-7.954545454545454,0.0 -12.5,-3.409090909090909 l-14.772727272727273,-4.545454545454546 -15.909090909090908,-6.818181818181818 l-14.772727272727273,-9.090909090909092 -11.363636363636363,-11.363636363636363 l-11.363636363636363,-12.5 -6.818181818181818,-12.5 l-2.272727272727273,-15.909090909090908 3.409090909090909,-17.045454545454547 l6.818181818181818,-14.772727272727273 10.227272727272727,-15.909090909090908 l11.363636363636363,-11.363636363636363 14.772727272727273,-11.363636363636363 l15.909090909090908,-9.090909090909092 13.636363636363637,-5.681818181818182 l13.636363636363637,-3.409090909090909 19.318181818181817,-3.409090909090909 l17.045454545454547,0.0 11.363636363636363,4.545454545454546 l11.363636363636363,10.227272727272727 9.090909090909092,13.636363636363637 l7.954545454545454,14.772727272727273 3.409090909090909,17.045454545454547 l2.272727272727273,13.636363636363637 1.1363636363636365,12.5 l0.0,12.5 0.0,9.090909090909092 l-2.272727272727273,7.954545454545454 -2.272727272727273,6.818181818181818 l-1.1363636363636365,3.409090909090909 -1.1363636363636365,-1.1363636363636365 m3.409090909090909,-3.409090909090909 l1.1363636363636365,-6.818181818181818 3.409090909090909,-13.636363636363637 l4.545454545454546,-11.363636363636363 4.545454545454546,-14.772727272727273 l5.681818181818182,-12.5 6.818181818181818,-10.227272727272727 l7.954545454545454,-5.681818181818182 12.5,-6.818181818181818 l14.772727272727273,-6.818181818181818 12.5,-3.409090909090909 l11.363636363636363,-1.1363636363636365 12.5,3.409090909090909 l12.5,4.545454545454546 12.5,5.681818181818182 l10.227272727272727,6.818181818181818 9.090909090909092,10.227272727272727 l7.954545454545454,10.227272727272727 5.681818181818182,11.363636363636363 l4.545454545454546,12.5 1.1363636363636365,10.227272727272727 l-1.1363636363636365,11.363636363636363 -5.681818181818182,7.954545454545454 l-9.090909090909092,9.090909090909092 -11.363636363636363,9.090909090909092 l-11.363636363636363,7.954545454545454 -9.090909090909092,6.818181818181818 l-10.227272727272727,4.545454545454546 -9.090909090909092,3.409090909090909 l-10.227272727272727,4.545454545454546 -11.363636363636363,4.545454545454546 l-9.090909090909092,2.272727272727273 -6.818181818181818,1.1363636363636365 l-4.545454545454546,0.0 -2.272727272727273,0.0 m4.545454545454546,1.1363636363636365 l4.545454545454546,-1.1363636363636365 9.090909090909092,1.1363636363636365 l12.5,3.409090909090909 11.363636363636363,2.272727272727273 l12.5,5.681818181818182 11.363636363636363,6.818181818181818 l11.363636363636363,10.227272727272727 11.363636363636363,11.363636363636363 l7.954545454545454,10.227272727272727 6.818181818181818,11.363636363636363 l3.409090909090909,9.090909090909092 3.409090909090909,6.818181818181818 l0.0,10.227272727272727 -2.272727272727273,12.5 l-5.681818181818182,12.5 -10.227272727272727,11.363636363636363 l-12.5,11.363636363636363 -11.363636363636363,5.681818181818182 l-13.636363636363637,2.272727272727273 -14.772727272727273,0.0 l-13.636363636363637,0.0 -13.636363636363637,-2.272727272727273 l-10.227272727272727,-4.545454545454546 -9.090909090909092,-7.954545454545454 l-7.954545454545454,-9.090909090909092 -6.818181818181818,-7.954545454545454 l-6.818181818181818,-7.954545454545454 -4.545454545454546,-7.954545454545454 l-4.545454545454546,-6.818181818181818 -4.545454545454546,-5.681818181818182 l-1.1363636363636365,-2.272727272727273 -1.1363636363636365,-2.272727272727273 l-1.1363636363636365,-3.409090909090909 m2.272727272727273,10.227272727272727 l3.409090909090909,11.363636363636363 1.1363636363636365,15.909090909090908 l0.0,17.045454545454547 -4.545454545454546,13.636363636363637 l-9.090909090909092,11.363636363636363 -9.090909090909092,7.954545454545454 l-9.090909090909092,5.681818181818182 -11.363636363636363,6.818181818181818 l-11.363636363636363,5.681818181818182 -17.045454545454547,6.818181818181818 l-15.909090909090908,4.545454545454546 -13.636363636363637,1.1363636363636365 l-12.5,-3.409090909090909 -12.5,-5.681818181818182 l-11.363636363636363,-5.681818181818182 -11.363636363636363,-6.818181818181818 l-10.227272727272727,-7.954545454545454 -9.090909090909092,-9.090909090909092 l-5.681818181818182,-7.954545454545454 -6.818181818181818,-12.5 l-3.409090909090909,-14.772727272727273 -1.1363636363636365,-11.363636363636363 l1.1363636363636365,-12.5 4.545454545454546,-13.636363636363637 l5.681818181818182,-12.5 5.681818181818182,-12.5 l6.818181818181818,-12.5 10.227272727272727,-12.5 l11.363636363636363,-11.363636363636363 11.363636363636363,-9.090909090909092 l12.5,-7.954545454545454 12.5,-5.681818181818182 l4.545454545454546,-2.272727272727273 10.227272727272727,-2.272727272727273 l4.545454545454546,0.0 2.272727272727273,0.0 " fill="none" stroke="black" stroke-width="2" /></svg>